# xmcd
#
# Track frame offsets:
#	150
#	30865
#	46297
#	82107
#	108527
#	146116
#	173316
#	206629
#	224806
#
# Disc length: 3316 seconds
#
# Revision: 1
# Processed by: cddbd v1.5.2PL0 Copyright (c) Steve Scherf et al.
# Submitted via: audiograbber 1.83.01
#
DISCID=7e0cf209
DTITLE=The Bresnan Blues Band - Party In My Backseat
DYEAR=2014
DGENRE=
TTITLE0=Party In My Backseat
TTITLE1=Low Hanging Fruit
TTITLE2=Darker Shade Of Gray
TTITLE3=Emotionally Bankrupt
TTITLE4=Dark Heart Rider
TTITLE5=Blues Collector
TTITLE6=No Way To Get There From Here
TTITLE7=Ain´t Got None
TTITLE8=Something Ain´t Right
EXTD=
EXTT0=
EXTT1=
EXTT2=
EXTT3=
EXTT4=
EXTT5=
EXTT6=
EXTT7=
EXTT8=
PLAYORDER=
